HIERARCHY
ROOT root
{
	OFFSET 0.000000 0.000000 0.000000
	CHANNELS 6 Xposition Yposition Zposition Zrotation Yrotation Xrotation
	JOINT lhip
	{
		OFFSET 0.058581 -0.082280 -0.017664
		CHANNELS 3 Zrotation Yrotation Xrotation
		JOINT lknee
		{
			OFFSET 0.043451 -0.386469 0.008037
			CHANNELS 3 Zrotation Yrotation Xrotation
			JOINT lankle
			{
				OFFSET -0.014790 -0.426874 -0.037428
				CHANNELS 3 Zrotation Yrotation Xrotation
				JOINT ltoe
				{
					OFFSET 0.041054 -0.060286 0.122042
					CHANNELS 3 Zrotation Yrotation Xrotation
					End Site
					{
						OFFSET 0.000000 0.000000 0.000000
					}
				}
			}
		}
	}
	JOINT rhip
	{
		OFFSET -0.060310 -0.090513 -0.013543
		CHANNELS 3 Zrotation Yrotation Xrotation
		JOINT rknee
		{
			OFFSET -0.043257 -0.383688 -0.004843
			CHANNELS 3 Zrotation Yrotation Xrotation
			JOINT rankle
			{
				OFFSET 0.019056 -0.420046 -0.034562
				CHANNELS 3 Zrotation Yrotation Xrotation
				JOINT rtoe
				{
					OFFSET -0.034840 -0.062106 0.130323
					CHANNELS 3 Zrotation Yrotation Xrotation
					End Site
					{
						OFFSET 0.000000 0.000000 0.000000
					}
				}
			}
		}
	}
	JOINT lowerback
	{
		OFFSET 0.004439 0.124404 -0.038385
		CHANNELS 3 Zrotation Yrotation Xrotation
		JOINT upperback
		{
			OFFSET 0.004488 0.137956 0.026820
			CHANNELS 3 Zrotation Yrotation Xrotation
			JOINT chest
			{
				OFFSET -0.002265 0.056032 0.002855
				CHANNELS 3 Zrotation Yrotation Xrotation
				JOINT lowerneck
				{
					OFFSET -0.013390 0.211636 -0.033468
					CHANNELS 3 Zrotation Yrotation Xrotation
					JOINT upperneck
					{
						OFFSET 0.010113 0.088937 0.050410
						CHANNELS 3 Zrotation Yrotation Xrotation
						End Site
						{
							OFFSET 0.000000 0.000000 0.000000
						}
					}
				}
				JOINT lclavicle
				{
					OFFSET 0.071702 0.114000 -0.018898
					CHANNELS 3 Zrotation Yrotation Xrotation
					JOINT lshoulder
					{
						OFFSET 0.122921 0.045205 -0.019046
						CHANNELS 3 Zrotation Yrotation Xrotation
						JOINT lelbow
						{
							OFFSET 0.255332 -0.015649 -0.022946
							CHANNELS 3 Zrotation Yrotation Xrotation
							JOINT lwrist
							{
								OFFSET 0.265709 0.012698 -0.007375
								CHANNELS 3 Zrotation Yrotation Xrotation
								End Site
								{
									OFFSET 0.000000 0.000000 0.000000
								}
							}
						}
					}
				}
				JOINT rclavicle
				{
					OFFSET -0.082954 0.112472 -0.023707
					CHANNELS 3 Zrotation Yrotation Xrotation
					JOINT rshoulder
					{
						OFFSET -0.113228 0.046853 -0.008472
						CHANNELS 3 Zrotation Yrotation Xrotation
						JOINT relbow
						{
							OFFSET -0.260127 -0.014369 -0.031269
							CHANNELS 3 Zrotation Yrotation Xrotation
							JOINT rwrist
							{
								OFFSET -0.269108 0.006794 -0.006027
								CHANNELS 3 Zrotation Yrotation Xrotation
								End Site
								{
									OFFSET 0.000000 0.000000 0.000000
								}
							}
						}
					}
				}
			}
		}
	}
}
MOTION
Frames: 7
Frame Time: 0.033333
-1.998367 0.265297 0.928509 98.283040 0.259618 87.653455 -4.992104 -2.324051 2.263673 -6.011999 -8.634962 37.589951 10.615372 17.714679 -36.521790 0.000000 -0.000000 0.000000 -0.561747 1.828886 -21.744646 -4.948452 -4.795288 100.341674 7.190257 -13.273828 1.657425 0.000000 -0.000000 0.000000 -4.008080 -4.628221 26.719951 1.308671 -2.714061 -4.862072 -0.210615 -3.607605 3.606488 0.301060 -0.066733 -18.046976 3.829496 3.978150 -2.857468 -28.643973 -9.230374 -3.538804 -48.504535 -26.594099 15.089230 159.869717 -70.710909 -144.934289 29.999082 -14.373689 -11.915053 28.705357 -2.208680 -1.536424 52.567083 -15.027843 19.080979 -51.807859 75.350273 -40.197695 -25.020430 22.785139 1.898195 
-1.871517 0.264987 0.956872 100.460363 2.413435 88.580061 0.036829 -0.207915 13.018434 -5.554521 -15.311284 28.645454 3.453759 11.851152 -26.260855 0.000000 -0.000000 0.000000 -0.914286 3.363845 -28.553495 -6.111384 -9.883230 89.066018 9.168347 -10.971443 -2.191435 0.000000 -0.000000 0.000000 -3.199001 -9.566141 22.410644 2.983449 -3.384598 -0.325281 0.129291 -4.390170 3.336617 0.026393 3.479605 -19.616184 1.871274 3.810165 -3.989221 -27.687593 -8.159878 -5.031686 -50.923318 -29.548652 16.386017 159.118956 -67.467181 -143.629989 28.918344 -14.157712 -13.826092 28.676595 -4.555691 -2.321387 50.772601 -15.539208 18.598973 -47.987338 77.295539 -34.948433 -25.150562 23.207915 1.560380 
-1.742176 0.265101 0.988046 100.419093 3.744640 90.776947 4.324900 1.014528 20.967981 -3.360382 -18.660685 17.938750 -3.143360 7.157348 -3.928792 0.000000 -0.000000 0.000000 -1.583382 5.210311 -32.967174 -5.777989 -14.520921 72.182715 8.822812 -9.775948 -2.307129 0.000000 -0.000000 0.000000 -1.634040 -13.548755 18.507178 3.175002 -2.459982 0.603895 0.376984 -4.984638 1.818184 -0.557178 4.693042 -18.109674 1.792856 5.472273 -4.245514 -27.997015 -5.316591 -4.997055 -53.298747 -29.371026 18.659762 162.532924 -65.325897 -146.162800 29.628640 -13.243259 -16.616884 27.799432 -7.480554 -0.675146 50.892856 -16.620527 16.941295 -44.984367 78.578110 -31.138480 -25.187232 22.619055 1.234301 
-1.581495 0.267308 1.012593 98.672246 3.594886 93.380887 4.189956 1.468593 28.349712 1.367048 -22.753172 6.886597 -3.969811 4.899989 21.530819 0.000000 -0.000000 0.000000 -1.922348 5.701495 -34.554021 -0.810148 -14.558266 44.376152 7.386226 -10.066038 -2.502240 0.000000 -0.000000 0.000000 0.197008 -16.012181 14.422292 2.266256 -1.186132 -0.688219 0.922581 -5.759062 0.461556 -1.968117 3.028203 -15.734222 2.689770 10.455231 -3.529681 -27.790187 -1.958911 -3.363781 -55.190450 -27.657999 19.048335 169.206526 -64.067398 -151.166406 28.944265 -12.046643 -16.191951 23.360878 -10.082561 2.166876 55.105788 -18.460255 15.114408 -51.535400 78.913392 -38.431439 -23.209167 21.861397 0.333592 
-1.488018 0.268602 1.017701 96.150480 2.826004 94.201091 1.602777 2.772972 28.903557 1.569040 -24.795565 11.759182 -4.528848 3.253820 15.771165 0.000000 -0.000000 0.000000 0.159731 4.670130 -33.838887 -0.432146 -9.959971 28.395938 10.156396 -8.942920 -1.253375 0.000000 -0.000000 0.000000 0.305225 -14.766615 12.752591 1.960568 -1.403961 -0.840849 1.165912 -5.846800 0.881532 -2.298308 3.264373 -16.132839 2.535785 11.453082 -3.893180 -27.347887 -1.023412 -3.517900 -55.877403 -26.130935 19.327499 172.872725 -64.213259 -154.392565 31.353594 -12.304845 -15.397824 22.192153 -10.439329 2.547196 56.899867 -18.609496 14.552909 -59.534439 78.781007 -46.738477 -21.029206 21.987558 0.705266 
-1.363703 0.268926 1.017360 92.517493 2.568212 92.966939 -1.388227 3.449693 28.815770 -0.994199 -21.035387 24.931941 -4.965384 3.271847 18.893895 0.000000 -0.000000 0.000000 3.944242 4.340435 -29.281725 -1.758808 -8.149785 12.236566 12.446523 -8.215302 -0.378486 0.000000 -0.000000 0.000000 0.573224 -12.360642 12.749054 1.556592 -2.091402 1.551943 0.745701 -5.400088 1.303481 -2.171101 4.807265 -19.020277 2.468929 11.654273 -5.108829 -27.318704 -0.372004 -4.169916 -55.080058 -23.760511 19.731891 175.835010 -65.274965 -158.080647 32.334652 -12.862963 -14.339090 24.677670 -9.611758 1.079190 57.031840 -17.221944 15.863956 -69.881010 76.367315 -57.992968 -21.984331 21.970862 2.179562 
-1.244151 0.267195 1.005580 88.395346 2.633846 92.123404 -2.521688 5.084003 23.203657 -0.838270 -11.320148 43.992798 -8.667432 3.802342 17.055580 0.000000 -0.000000 0.000000 8.779606 2.391241 -27.334099 -3.783902 -10.334390 8.981780 12.452686 -7.637425 1.176456 0.000000 -0.000000 0.000000 0.497443 -8.680866 11.471777 1.996676 -2.508957 5.090693 0.521447 -4.709319 2.054790 -1.927948 6.751819 -20.560416 0.986492 9.438400 -6.410501 -27.309125 -0.865408 -3.337915 -55.689963 -20.524712 19.127472 175.736343 -68.698904 -158.393480 29.817793 -14.675298 -14.082533 26.907956 -7.412913 0.838520 57.538472 -13.449144 15.714411 -74.912725 73.895535 -62.691270 -19.945063 21.780486 1.474458 
